<?xml version="1.0" encoding="UTF-8" standalone="no"?>
<!-- Created with Inkscape (http://www.inkscape.org/) -->

<svg
   width="120"
   height="120"
   viewBox="0 0 120 120"
   version="1.1"
   id="svg5"
   xml:space="preserve"
   inkscape:version="1.2.2 (b0a8486541, 2022-12-01)"
   sodipodi:docname="aw-logo.svg"
   xmlns:inkscape="http://www.inkscape.org/namespaces/inkscape"
   xmlns:sodipodi="http://sodipodi.sourceforge.net/DTD/sodipodi-0.dtd"
   xmlns:xlink="http://www.w3.org/1999/xlink"
   xmlns="http://www.w3.org/2000/svg"
   xmlns:svg="http://www.w3.org/2000/svg"><sodipodi:namedview
     id="namedview7"
     pagecolor="#505050"
     bordercolor="#ffffff"
     borderopacity="1"
     inkscape:showpageshadow="0"
     inkscape:pageopacity="0"
     inkscape:pagecheckerboard="1"
     inkscape:deskcolor="#505050"
     inkscape:document-units="px"
     showgrid="false"
     inkscape:zoom="1.8558321"
     inkscape:cx="43.376769"
     inkscape:cy="60.889129"
     inkscape:window-width="1536"
     inkscape:window-height="791"
     inkscape:window-x="0"
     inkscape:window-y="0"
     inkscape:window-maximized="1"
     inkscape:current-layer="layer1" /><defs
     id="defs2"><linearGradient
       inkscape:collect="always"
       id="linearGradient575"><stop
         style="stop-color:#bdc3c7;stop-opacity:1;"
         offset="0"
         id="stop571" /><stop
         style="stop-color:#2c3e50;stop-opacity:1;"
         offset="1"
         id="stop573" /></linearGradient><linearGradient
       inkscape:collect="always"
       xlink:href="#linearGradient575"
       id="linearGradient577"
       x1="4.8495765"
       y1="11.854521"
       x2="109.92374"
       y2="112.0791"
       gradientUnits="userSpaceOnUse" /></defs><g
     inkscape:label="Capa 1"
     inkscape:groupmode="layer"
     id="layer1"><path
       id="path341"
       style="fill:url(#linearGradient577);stroke-width:0.751271;fill-opacity:1"
       d="M 58.738716,3.5698909 C 54.894833,3.5631285 51.213911,3.8653407 48.217986,4.5031114 30.082104,8.363831 14.034383,21.028639 6.9347594,37.082157 5.9207098,39.375097 5.1896251,41.338622 5.3104286,41.445986 5.4312277,41.553352 7.728019,39.080638 10.413789,35.950849 21.142325,23.448622 35.299337,17.852183 50.759396,20.002479 c 6.925282,0.963217 11.068061,2.724522 15.213239,6.469441 l 3.16062,2.855417 -0.545845,-2.958129 c -1.432917,-7.767202 -5.064675,-13.10642 -11.002013,-16.171403 -3.88238,-2.0041704 -4.091944,-1.8246641 -1.421839,1.216413 2.611853,2.974747 3.152852,5.356938 1.016857,4.476813 -4.201824,-1.73134 -10.347423,-2.872414 -15.785496,-2.931718 -7.25433,-0.07911 -6.925571,-0.96026 1.311789,-3.5113121 26.573308,-8.2295634 54.266014,3.5978581 66.113322,28.2357601 4.18712,8.707541 5.55592,15.875893 5.07547,26.586486 -0.31866,7.103883 -0.80128,9.860455 -2.59862,14.85668 -5.92783,16.478207 -18.050788,28.434843 -34.603959,34.130013 -2.219665,0.76368 -3.908325,1.14478 -3.75342,0.84665 3.206146,-6.17083 3.73309,-8.10695 3.443814,-12.64983 -0.382872,-6.012921 -3.073365,-10.144774 -8.869988,-13.622654 -5.225852,-3.135421 -5.980326,-3.082674 -3.084319,0.215697 2.866172,3.264378 4.390318,6.792952 5.035863,11.659378 0.56154,4.233089 0.09076,4.688749 -1.555366,1.505469 C 67.281726,99.997651 63.569753,95.583107 59.660197,91.401111 51.540835,82.715926 48.586154,77.519369 48.12261,71.110923 c -0.390353,-5.396519 0.919816,-8.192903 6.099675,-13.015185 4.347217,-4.047106 3.4703,-4.219103 -3.826787,-0.752739 -3.163601,1.502824 -4.411022,2.662712 -6.162771,5.729909 -3.993397,6.992184 -3.746999,16.520439 0.594268,22.969527 1.11271,1.65298 5.235157,6.440666 9.160518,10.639587 9.977259,10.672488 12.752617,15.177518 12.767207,20.725978 0.0039,1.49255 0.230121,1.55157 3.572939,0.93176 18.344468,-3.40133 34.559321,-16.23792 42.439481,-33.598844 2.63006,-5.79428 5.05394,-16.666026 5.06814,-22.730352 0.0143,-6.146655 -1.9565,-16.456288 -4.23323,-22.143422 C 107.31577,24.164297 93.527897,11.455989 76.901281,6.0423362 72.005806,4.4483596 65.145183,3.5811541 58.738716,3.5698909 Z M 48.678726,26.813808 c -3.976065,0.05195 -6.344728,3.80558 -5.659477,8.971233 0.399039,3.008149 0.231359,3.737313 -1.148917,4.965432 -2.715671,2.416283 -4.383791,7.025395 -4.327145,11.95871 l 0.05282,4.507626 1.116635,-4.131991 c 1.780141,-6.586331 5.010197,-9.76235 12.522164,-12.307933 1.276563,-0.432597 1.234253,-0.641197 -0.563454,-2.777648 -4.695726,-5.580557 -0.431563,-8.509435 7.572872,-5.201672 l 3.631633,1.501075 -2.62945,-2.275824 C 55.971097,29.188405 51.08945,26.782315 48.678722,26.813808 Z m -19.838252,4.645555 -3.665381,1.443849 c -4.874416,1.921312 -9.138572,4.930917 -13.311584,9.393823 -9.5116098,10.172366 -11.84975125,21.75808 -7.4085314,36.718375 0.9179175,3.092034 1.874272,5.622794 2.124689,5.622794 0.2504103,0 1.2730282,-1.542905 2.272888,-3.427675 3.0298484,-5.711317 11.7404024,-13.165986 20.4912124,-17.537484 4.213735,-2.104983 7.171985,-3.824673 6.573622,-3.820917 -4.07977,0.02311 -14.898558,1.749093 -19.107523,3.049103 -2.771787,0.856121 -5.223106,1.372524 -5.448182,1.14745 -0.800363,-0.800361 2.235188,-11.426881 4.814297,-16.852243 1.815837,-3.819755 4.163776,-7.082713 7.643303,-10.624909 z m 44.15185,0.0132 c -0.144675,0.02156 -0.223034,0.06963 -0.223034,0.1482 0,0.157008 1.53965,1.187462 3.421806,2.290497 1.882178,1.103029 4.584335,3.623732 6.005765,5.602251 1.78274,2.481446 5.028814,5.202553 10.463505,8.771677 4.33322,2.845752 7.885234,5.358721 7.892744,5.584644 0.007,0.225922 -2.588007,1.254771 -5.766588,2.286095 l -5.779798,1.875243 5.037331,2.946392 c 2.77025,1.620518 4.948877,3.127234 4.840709,3.348438 -2.502638,5.117872 -5.77054,9.902802 -6.958061,10.187647 -0.826392,0.198209 -4.492646,0.686268 -8.146596,1.084354 l -6.644054,0.723392 -5.188466,-2.611842 -5.188466,-2.613308 0.02642,-3.184098 c 0.01519,-1.750887 0.489092,-5.549159 1.052073,-8.441528 0.562981,-2.89237 0.972889,-5.310694 0.91121,-5.37335 -0.06167,-0.06267 -1.666606,1.297917 -3.56707,3.02416 l -3.455554,3.138611 0.582529,4.112916 c 0.32083,2.261797 0.608162,7.165984 0.638287,10.897833 l 0.05576,6.784916 3.568537,1.053541 c 7.721151,2.278947 15.385204,6.856335 20.834567,12.442927 l 5.247159,5.377749 1.995564,-3.954443 c 1.097444,-2.175711 2.919107,-5.167929 4.048354,-6.648454 l 2.052783,-2.692544 -1.540686,-6.136359 -1.542161,-6.136358 2.11295,-3.062311 c 1.162107,-1.684518 2.807557,-3.687641 3.655107,-4.450401 1.26707,-1.14029 1.39808,-1.696778 0.74247,-3.135676 -0.63146,-1.385897 -0.44115,-2.607118 0.90974,-5.866371 0.93817,-2.263525 1.51679,-4.605233 1.28686,-5.204606 -0.23006,-0.599379 -4.70143,-3.743049 -9.936751,-6.985941 -7.516635,-4.656007 -9.817063,-6.480054 -10.93452,-8.670433 -0.959097,-1.879992 -2.4513,-3.25659 -4.63235,-4.272854 -2.648166,-1.233912 -6.865356,-2.39156 -7.878074,-2.240607 z m -1.347007,9.817881 c -0.52056,-0.0937 -0.429402,0.298827 0.729262,1.260432 2.438933,2.024132 1.311592,2.944366 -3.889882,3.173828 l -5.035864,0.223033 9.355673,4.264051 c 5.145331,2.345316 9.524715,4.280524 9.731308,4.300734 0.206599,0.02022 -1.089544,-1.344568 -2.878894,-3.032964 -2.537648,-2.394494 -3.158017,-3.446252 -2.823136,-4.780549 0.335878,-1.338243 -0.153188,-2.154631 -2.243543,-3.749019 -1.292252,-0.985656 -2.424357,-1.565855 -2.944924,-1.659546 z m -36.204809,24.56598 c -1.706596,0 -11.880893,6.381773 -15.467087,9.701962 -5.763036,5.335553 -10.596883,12.375413 -10.0145016,14.583756 0.7921436,3.003783 8.0931026,11.811758 13.1281676,15.838328 8.144173,6.51289 15.406569,10.0989 24.514622,12.10397 2.479176,0.54578 6.198004,0.99617 8.263981,1.00218 l 3.756356,0.01 -4.114383,-1.10489 c -6.813794,-1.83125 -11.696414,-5.3099 -17.499333,-12.46793 -3.710221,-4.5767 -3.871137,-5.684361 -1.684492,-11.590416 2.833544,-7.653311 3.115477,-12.828431 1.151851,-21.128032 -0.904266,-3.822061 -1.820133,-6.949258 -2.035181,-6.949258 z m 57.478107,12.771608 c 0.878569,0 1.752886,1.180145 2.642655,3.568538 l 1.329398,3.568538 -2.858352,2.429892 c -3.298357,2.805206 -3.306269,2.807198 -4.762942,1.358744 -0.605037,-0.601626 -2.918848,-2.086763 -5.141511,-3.300017 l -4.041016,-2.205389 1.787203,-1.156252 c 2.408887,-1.55868 9.416513,-4.264051 11.044565,-4.264051 z m -64.219004,0.0073 c 0.359454,-0.09491 0.56662,0.208138 0.812899,0.760075 0.892985,2.001255 -0.503506,7.597835 -2.648524,10.610237 -1.862357,2.615436 -2.203859,2.636764 -4.410783,0.287595 l -1.743184,-1.856148 4.043951,-5.320525 c 2.325384,-3.058752 3.346552,-4.323047 3.945641,-4.481214 z" /></g></svg>
